<svg xmlns="http://www.w3.org/2000/svg" width="966" height="389" viewBox="0 0 966 389">
  <defs>
    <style>
      .cls-1 {
        fill: #fff;
        stroke-width: 1px;
      }

      .cls-1, .cls-2 {
        stroke: #fff;
        fill-rule: evenodd;
      }

      .cls-2 {
        fill: none;
        stroke-width: 30px;
      }
    </style>
  </defs>
  <path id="påskeæg" class="cls-1" d="M612.867,695.546V682.488H582.732v209.6h30.135V832.825q4.347,13.059,20.759,13.058h11.719q30.463,0,30.469-29.464V712.287q0-29.8-30.469-29.8H633.626q-16.409,0-20.759,13.058h0Zm30.8,124.053q-2.009,1.845-8.036,1.842H623.916q-6.027,0-8.538-2.679t-2.511-9.04V718.649q0-6.357,2.511-9.04t8.538-2.679h11.719q6.027,0,8.036,1.842t2.009,7.868v95.091Q645.68,817.758,643.671,819.6ZM764.2,695.546q-4.356-13.058-20.76-13.058H731.39q-30.133,0-30.134,29.8V816.419q0,29.466,30.134,29.464h12.054q16.4,0,20.76-13.058v13.058h30.134V682.488H764.2v13.058ZM733.4,819.6q-2.009-1.836-2.009-7.868V716.64q0-6.027,2.009-7.868t8.036-1.842h11.719q6.027,0,8.538,2.679t2.512,9.04v91.073q0,6.365-2.512,9.04t-8.538,2.679H741.435Q735.408,821.441,733.4,819.6Zm51.9-173.942v-5.692q0-23.433-24.443-23.438H739.092q-24.446,0-24.443,23.438v5.692q0,23.44,24.443,23.438h21.763q24.438,0,24.443-23.438h0ZM737.25,634.942q1.506-1.671,7.2-1.674H755.5q5.689,0,7.2,1.674t1.507,6.7v2.344q0,5.022-1.507,6.7t-7.2,1.674H744.449q-5.7,0-7.2-1.674t-1.507-6.7v-2.344Q735.743,636.617,737.25,634.942Zm139.116,186q-2.01,1.844-8.036,1.841h-8.036q-6.027,0-8.036-1.841t-2.009-7.869V800.347H820.784v16.072q0,29.466,31.139,29.464H876.7q31.14,0,31.139-29.464V782.936q0-29.8-30.8-29.8H859.624q-6.027,0-8.036-1.841t-2.009-7.869V715.3q0-6.027,2.009-7.869t8.036-1.841h8.036q6.027,0,8.036,1.841t2.009,7.869v12.723H907.17V712.287q0-29.8-31.474-29.8H851.254q-31.14,0-31.139,29.8v34.488q0,29.466,31.139,29.464H868.33q6.027,0,8.036,1.842t2.008,7.868V813.07Q878.374,819.1,876.366,820.939Zm128.9-138.451L969.108,760.5l36.162,85.381h32.14l-37.5-85.381,37.5-78.014h-32.14ZM963.751,845.883v-224H933.617v224h30.134Zm88.729-133.6V816.419q0,29.466,31.14,29.464h32.14q31.14,0,31.14-29.464V798.673h-29.47v13.393c0,4.018-.66,6.7-2,8.036s-4.02,2.009-8.04,2.009h-15.4q-6.03,0-8.04-2.009t-2.01-7.7v-38.84h65.96V712.287q0-29.8-31.47-29.8h-32.81q-31.14,0-31.14,29.8h0Zm29.46,3.684q0-5.689,2.01-7.7t8.04-2.009h16.4q6.03,0,7.87,2.009t1.84,7.7v35.491h-36.16V715.971Zm246.1,56.25h3.34V712.287q0-29.8-31.13-29.8h-26.12a28.218,28.218,0,0,0-15.4,4.018,18.962,18.962,0,0,0-8.37,10.045q-2.01-5.69-8.37-9.878a26.254,26.254,0,0,0-14.74-4.185h-23.77q-30.135,0-30.13,29.8v29.465h30.13V716.64q0-6.027,2.01-7.868t8.04-1.842h11.71q10.05,0,11.05,10.045v35.492l-62.94,25.781v38.171q0,29.466,30.13,29.464h23.44a26.814,26.814,0,0,0,14.9-4.018,19.163,19.163,0,0,0,8.2-10.044,20.76,20.76,0,0,0,8.71,10.044,27.576,27.576,0,0,0,15.06,4.018h25.79q31.125,0,31.13-29.464V798.673h-29.8v13.393c0,4.018-.66,6.644-2,7.868s-4.02,1.842-8.04,1.842H1275.8q-6.03,0-7.87-1.842t-1.84-7.868V773.9h61.95v-1.675Zm-28.3-63.784q1.845,1.844,1.84,7.868v34.822h-35.49V716.305q0-6.027,1.84-7.868t7.87-1.842h16.07Q1297.9,706.6,1299.74,708.437ZM1205.49,819.6q-2.01-1.836-2.01-7.868v-22.1l32.81-13.058V811.4c-0.22,3.8-1.23,6.419-3.01,7.869s-4.47,2.176-8.04,2.176h-11.71Q1207.5,821.441,1205.49,819.6Zm215.62-124.053q-4.35-13.058-20.75-13.058H1388.3q-30.135,0-30.13,29.8V814.075q0,29.805,30.13,29.8h12.06q16.4,0,20.75-13.058v27.791c0,3.793-.66,6.361-2,7.7s-4.02,2.009-8.04,2.009h-47.21v23.772h55.92q31.455,0,31.47-29.464V682.488h-30.14v13.058Zm-30.8,121.877q-2.01-2.009-2.01-7.7V716.64q0-6.027,2.01-7.868t8.04-1.842h11.72c4.01,0,6.86.9,8.53,2.679s2.51,4.8,2.51,9.04v89.064c0,4.243-.83,7.256-2.51,9.04s-4.52,2.679-8.53,2.679h-11.72Q1392.32,819.432,1390.31,817.423Z" transform="translate(-534 -560)"/>
  <path class="cls-2" d="M549,575h936V934H549V575Z" transform="translate(-534 -560)"/>
</svg>
