<svg xmlns="http://www.w3.org/2000/svg" width="1570.967" height="356.594" viewBox="0 0 1570.967 356.594">
  <defs>
    <style>
      .cls-1 {
        fill: #fff;
        fill-rule: evenodd;
      }
    </style>
  </defs>
  <path id="_TheLAB" class="cls-1" d="M216.058,796.569H443.281V765.011H216.058v31.558ZM538.581,472.778H473.57v-32.19h194.4v32.19H603.592V732.19H538.581V472.778ZM738.028,601.537h32.19v-32.19h30.927V730.3h65.011V569.347H834.6v-32.19H738.028V442.481H673.017V730.3h65.011V601.537Zm291.592,0.631H966.5V570.609h63.118v31.559Zm65.01,32.19V570.609h-32.82V538.42H933.05v32.189H901.492v127.5H933.05V730.3h128.76v-32.19h32.82v-32.19h-65.01v32.19H966.5V634.358H1094.63Zm29.03-193.77h65.01V700h129.39v32.19h-194.4v-291.6Zm388.8,63.748h-32.19V439.957h-65.01v64.379h-32.19v65.011h-32.82v97.2h-32.19v65.01h65.01v-65.01h129.39v65.01h65.01v-65.01h-32.19v-97.2h-32.82V504.336Zm-97.2,130.022V569.347h65.01v65.011h-65.01Zm177.36-193.77h162.21v32.821h32.19v97.2h-32.19V602.8h32.19V700h-32.19v32.19H1592.62v-291.6ZM1722.64,602.8h-65.01V700h65.01V602.8Zm0-129.39h-65.01v97.2h65.01v-97.2Z" transform="translate(-216.063 -439.969)"/>
</svg>
